<svg width="26" height="26" viewBox="0 0 26 26" fill="none" xmlns="http://www.w3.org/2000/svg">
<path d="M13 0.811325C6.14516 0.811325 0.5 6.37585 0.5 13.3113C0.5 18.7952 4.08871 23.4727 9.08871 25.1662C9.73387 25.2872 9.93549 24.8839 9.93549 24.6017C9.93549 24.3194 9.93549 23.5129 9.89516 22.4242C6.42743 23.2307 5.70161 20.7307 5.70161 20.7307C5.1371 19.3194 4.29032 18.9162 4.29032 18.9162C3.16129 18.1097 4.33065 18.1097 4.33065 18.1097C5.58065 18.1501 6.26612 19.4001 6.26612 19.4001C7.35484 21.3356 9.20968 20.771 9.89516 20.4081C10.0161 19.6017 10.3387 19.0372 10.7016 18.7146C7.95967 18.4323 5.01612 17.3435 5.01612 12.5856C5.01612 11.2146 5.54033 10.1258 6.30645 9.27907C6.18549 8.99681 5.74194 7.70649 6.42742 5.97262C6.42742 5.97262 7.51613 5.65004 9.89516 7.26294C10.9033 6.98069 11.9516 6.8194 13.0404 6.8194C14.129 6.8194 15.2177 6.94036 16.1855 7.26294C18.5645 5.69036 19.6129 5.97262 19.6129 5.97262C20.2984 7.66616 19.8951 8.99681 19.7339 9.27907C20.5404 10.1258 21.0243 11.2549 21.0243 12.5856C21.0243 17.3435 18.0806 18.4323 15.3388 18.7146C15.7823 19.1178 16.1855 19.9242 16.1855 21.0533C16.1855 22.7468 16.1451 24.0774 16.1451 24.4807C16.1451 24.8033 16.3871 25.1662 16.9919 25.0452C21.9112 23.3919 25.5 18.7549 25.5 13.2307C25.4596 6.37585 19.8549 0.811325 13 0.811325Z" fill="white"/>
</svg>
