<svg width="19" height="25" viewBox="0 0 19 25" fill="none" xmlns="http://www.w3.org/2000/svg">
<path d="M12.2267 21.0467C11.3718 21.3889 10.4347 21.4702 9.53356 21.2805C8.63245 21.0907 7.80772 20.6384 7.16341 19.9805C6.51909 19.3225 6.08405 18.4885 5.91317 17.5837C5.74228 16.6788 5.8432 15.7436 6.2032 14.896L9.2587 17.9515L11.732 15.477L8.6777 12.4215C9.53927 12.054 10.4917 11.9551 11.4104 12.1377C12.3291 12.3204 13.1713 12.776 13.8268 13.4451C14.4823 14.1142 14.9205 14.9656 15.0843 15.8879C15.248 16.8101 15.1295 17.7603 14.7444 18.6142L16.9995 20.8693C18.0865 19.3093 18.6685 17.4531 18.6667 15.5517C18.6499 12.5567 17.9597 9.60383 16.647 6.9118C15.3343 4.21977 13.4328 1.85752 11.0834 0C11.5818 1.82805 11.8714 3.70671 11.9467 5.6C11.9881 6.15074 11.9165 6.70413 11.736 7.22613C11.5556 7.74813 11.2703 8.2277 10.8977 8.63532C10.525 9.04295 10.0729 9.37001 9.56914 9.59639C9.06537 9.82277 8.52061 9.94367 7.96837 9.95167C7.40273 9.95028 6.84306 9.83592 6.32222 9.61527C5.80138 9.39463 5.32987 9.07215 4.93537 8.66679C4.54087 8.26142 4.23133 7.78132 4.02492 7.25468C3.8185 6.72804 3.71938 6.16547 3.73337 5.6L3.76837 5.18C1.32686 8.08373 -0.00808279 11.7579 3.68226e-05 15.5517C0.000345718 17.2399 0.458581 18.8965 1.32594 20.345C2.19329 21.7934 3.43729 22.9795 4.92542 23.7768C6.41355 24.5742 8.09009 24.9529 9.77647 24.8728C11.4628 24.7926 13.0959 24.2566 14.5017 23.3217L12.2267 21.0467Z" fill="white"/>
</svg>
