<svg width="30" height="30" viewBox="0 0 30 30" fill="none" xmlns="http://www.w3.org/2000/svg">
<path d="M16.4999 6.57692H19.4422C19.61 6.57542 19.7706 6.50807 19.8893 6.38938C20.008 6.27069 20.0753 6.11015 20.0768 5.94231C20.0719 5.77353 20.011 5.61117 19.9037 5.48077L15.7499 1.38461C15.6996 1.32768 15.6372 1.28263 15.5674 1.2527C15.4976 1.22277 15.422 1.20871 15.346 1.21154C15.1782 1.21304 15.0177 1.28039 14.899 1.39908C14.7803 1.51776 14.7129 1.67831 14.7114 1.84615V4.78846C14.7145 5.26186 14.9038 5.715 15.2386 6.04975C15.5733 6.3845 16.0265 6.5739 16.4999 6.57692Z" fill="white"/>
<path d="M28.748 18.7212C28.7511 18.5043 28.6687 18.2949 28.5187 18.1384C28.3686 17.9818 28.1629 17.8907 27.9461 17.8846H21.023C20.9137 17.8839 20.8053 17.9048 20.7042 17.9463C20.603 17.9878 20.5112 18.0489 20.4339 18.1262C20.3566 18.2035 20.2954 18.2954 20.2539 18.3966C20.2124 18.4977 20.1915 18.6061 20.1922 18.7154V19.5462C20.1907 19.763 20.2745 19.9717 20.4257 20.1272C20.5769 20.2827 20.7831 20.3724 20.9999 20.3769H24.5422L18.1961 26.7231C18.0439 26.8765 17.9585 27.0839 17.9585 27.3C17.9585 27.5161 18.0439 27.7235 18.1961 27.8769L18.773 28.4538C18.8556 28.5363 18.9537 28.6017 19.0616 28.6462C19.1695 28.6908 19.2851 28.7136 19.4019 28.7135C19.5022 28.7145 19.6018 28.6956 19.6949 28.658C19.788 28.6204 19.8727 28.5647 19.9442 28.4942L26.2903 22.1481V25.6096C26.2896 25.7184 26.3103 25.8263 26.3515 25.9271C26.3926 26.0279 26.4532 26.1195 26.5299 26.1967C26.6066 26.2739 26.6978 26.3352 26.7983 26.377C26.8987 26.4189 27.0065 26.4404 27.1153 26.4404H27.998C28.1068 26.4435 28.2152 26.425 28.3168 26.386C28.4185 26.3469 28.5114 26.2882 28.5902 26.2131C28.6691 26.138 28.7323 26.0481 28.7762 25.9485C28.8201 25.8489 28.8439 25.7415 28.8461 25.6327L28.748 18.7212Z" fill="white"/>
<path d="M10.5864 11.9308H9.74414V14.775H10.5864C10.7856 14.7838 10.982 14.7263 11.1448 14.6114C11.3077 14.4965 11.4279 14.3309 11.4864 14.1404C11.5841 13.8745 11.631 13.5927 11.6249 13.3096C11.6433 12.9571 11.5719 12.6057 11.4172 12.2885C11.3239 12.1594 11.1974 12.0581 11.0511 11.9951C10.9049 11.9321 10.7443 11.9099 10.5864 11.9308Z" fill="white"/>
<path d="M6.51354 12.075C6.37423 11.9709 6.20246 11.9198 6.02892 11.9308H5.19238V13.2173H6.03469C6.21107 13.2284 6.38486 13.1705 6.51931 13.0558C6.58223 12.9904 6.63028 12.9123 6.66015 12.8266C6.69003 12.741 6.70102 12.6499 6.69238 12.5596C6.70086 12.4696 6.68804 12.3788 6.65497 12.2946C6.6219 12.2104 6.5695 12.1352 6.502 12.075H6.51354Z" fill="white"/>
<path d="M19.1768 9.23077H14.6537C13.9431 9.23542 13.2595 8.95914 12.7516 8.46208C12.2438 7.96503 11.9528 7.28747 11.9422 6.57693V2.07693C11.9484 1.96931 11.9334 1.86151 11.8979 1.75973C11.8624 1.65794 11.8071 1.56416 11.7353 1.48377C11.6635 1.40337 11.5765 1.33794 11.4793 1.29123C11.3822 1.24452 11.2768 1.21744 11.1691 1.21154H3.92296C3.21236 1.2069 2.5287 1.48318 2.02084 1.98024C1.51298 2.47729 1.22206 3.15485 1.21143 3.86539V20.8269C1.21142 21.1764 1.28045 21.5224 1.41454 21.8452C1.54863 22.1679 1.74514 22.461 1.99279 22.7076C2.24045 22.9542 2.53437 23.1494 2.85768 23.2821C3.181 23.4148 3.52733 23.4823 3.87681 23.4808H14.1922V23.4231C14.1872 21.5629 14.7471 19.745 15.7979 18.21C16.8487 16.675 18.3408 15.4953 20.0768 14.8269V10.1539C20.0783 10.0341 20.0563 9.91531 20.0119 9.80413C19.9675 9.69295 19.9016 9.59161 19.818 9.5059C19.7344 9.42018 19.6348 9.35176 19.5248 9.30456C19.4148 9.25735 19.2965 9.23228 19.1768 9.23077ZM7.20566 13.6442C6.89042 13.8746 6.50514 13.9888 6.11527 13.9673H5.19219V15.5308H4.32104V11.175H6.19027C6.56173 11.1683 6.92285 11.2975 7.20566 11.5385C7.34008 11.674 7.44369 11.8369 7.5094 12.0161C7.57511 12.1953 7.60139 12.3866 7.58643 12.5769C7.60371 12.7718 7.57863 12.968 7.5129 13.1523C7.44717 13.3365 7.34236 13.5043 7.20566 13.6442ZM12.2018 14.7404C12.0625 15.0035 11.8514 15.2218 11.5931 15.3699C11.3347 15.5179 11.0397 15.5897 10.7422 15.5769H8.86143V11.175H10.7422C10.9709 11.1727 11.1986 11.2058 11.4172 11.2731C11.7168 11.3699 11.9762 11.5625 12.1557 11.8212C12.3046 12.0331 12.4104 12.2723 12.4672 12.525C12.5229 12.7691 12.55 13.0189 12.548 13.2692C12.5654 13.7817 12.4459 14.2895 12.2018 14.7404ZM16.771 11.9481H14.573V12.9519H16.4999V13.7077H14.573V15.5308H13.6672V11.1808H16.771V11.9481Z" fill="white"/>
</svg>
